<svg id="ex0w1jsvv3yo1" xmlns="http://www.w3.org/2000/svg" xmlns:xlink="http://www.w3.org/1999/xlink" viewBox="0 0 1051 1007" shape-rendering="geometricPrecision" text-rendering="geometricPrecision"><style><![CDATA[#ex0w1jsvv3yo3_to {animation: ex0w1jsvv3yo3_to__to 3000ms linear 1 normal forwards}@keyframes ex0w1jsvv3yo3_to__to { 0% {transform: translate(8541.563389px,-181.004584px)} 6.666667% {transform: translate(2620.024409px,-181.004584px)} 100% {transform: translate(2620.024409px,-181.004584px)} }#ex0w1jsvv3yo3 {animation: ex0w1jsvv3yo3_c_o 3000ms linear 1 normal forwards}@keyframes ex0w1jsvv3yo3_c_o { 0% {opacity: 1} 6.666667% {opacity: 1} 26.666667% {opacity: 0} 100% {opacity: 0} }#ex0w1jsvv3yo4_to {animation: ex0w1jsvv3yo4_to__to 3000ms linear 1 normal forwards}@keyframes ex0w1jsvv3yo4_to__to { 0% {transform: translate(8574.731964px,-181.004584px)} 6.666667% {transform: translate(2653.192984px,-181.004584px)} 100% {transform: translate(2653.192984px,-181.004584px)} }#ex0w1jsvv3yo4 {animation: ex0w1jsvv3yo4_c_o 3000ms linear 1 normal forwards}@keyframes ex0w1jsvv3yo4_c_o { 0% {opacity: 1} 6.666667% {opacity: 1} 26.666667% {opacity: 0} 100% {opacity: 0} }#ex0w1jsvv3yo5_to {animation: ex0w1jsvv3yo5_to__to 3000ms linear 1 normal forwards}@keyframes ex0w1jsvv3yo5_to__to { 0% {transform: translate(8574.731964px,-181.004584px)} 6.666667% {transform: translate(2653.192984px,-181.004584px)} 100% {transform: translate(2653.192984px,-181.004584px)} }#ex0w1jsvv3yo5 {animation: ex0w1jsvv3yo5_c_o 3000ms linear 1 normal forwards}@keyframes ex0w1jsvv3yo5_c_o { 0% {opacity: 1} 6.666667% {opacity: 1} 26.666667% {opacity: 0} 100% {opacity: 0} }#ex0w1jsvv3yo6_to {animation: ex0w1jsvv3yo6_to__to 3000ms linear 1 normal forwards}@keyframes ex0w1jsvv3yo6_to__to { 0% {transform: translate(2340.722261px,146.790206px)} 6.666667% {transform: translate(2340.722261px,146.790206px)} 26.666667% {transform: translate(2340.722261px,-2960.265229px)} 100% {transform: translate(2340.722261px,-2960.265229px)} }#ex0w1jsvv3yo6 {animation: ex0w1jsvv3yo6_c_o 3000ms linear 1 normal forwards}@keyframes ex0w1jsvv3yo6_c_o { 0% {opacity: 0} 6.666667% {opacity: 0} 26.666667% {opacity: 1} 33.333333% {opacity: 0.020000} 100% {opacity: 0.020000} }#ex0w1jsvv3yo7 {animation: ex0w1jsvv3yo7_c_o 3000ms linear 1 normal forwards}@keyframes ex0w1jsvv3yo7_c_o { 0% {opacity: 0} 26.666667% {opacity: 0} 36.666667% {opacity: 1} 60% {opacity: 1} 63.333333% {opacity: 0} 66.666667% {opacity: 0} 70% {opacity: 1} 73.333333% {opacity: 0} 100% {opacity: 0} }#ex0w1jsvv3yo8_to {animation: ex0w1jsvv3yo8_to__to 3000ms linear 1 normal forwards}@keyframes ex0w1jsvv3yo8_to__to { 0% {transform: translate(-6268.403669px,3323.479157px)} 43.333333% {transform: translate(-6268.403669px,3323.479157px)} 50% {transform: translate(2453.901792px,708.763718px)} 100% {transform: translate(2453.901792px,708.763718px)} }#ex0w1jsvv3yo8 {animation: ex0w1jsvv3yo8_c_o 3000ms linear 1 normal forwards}@keyframes ex0w1jsvv3yo8_c_o { 0% {opacity: 0} 43.333333% {opacity: 0} 50% {opacity: 1} 60% {opacity: 1} 63.333333% {opacity: 0} 66.666667% {opacity: 0} 70% {opacity: 1} 73.333333% {opacity: 0} 100% {opacity: 0} }#ex0w1jsvv3yo9_to {animation: ex0w1jsvv3yo9_to__to 3000ms linear 1 normal forwards}@keyframes ex0w1jsvv3yo9_to__to { 0% {transform: translate(-6293.750000px,3120.238724px)} 36.666667% {transform: translate(-6293.750000px,3120.238724px)} 43.333333% {transform: translate(2349.782790px,661.329018px)} 100% {transform: translate(2349.782790px,661.329018px)} }#ex0w1jsvv3yo9 {animation: ex0w1jsvv3yo9_c_o 3000ms linear 1 normal forwards}@keyframes ex0w1jsvv3yo9_c_o { 0% {opacity: 0} 36.666667% {opacity: 0} 43.333333% {opacity: 1} 60% {opacity: 1} 63.333333% {opacity: 0} 66.666667% {opacity: 0} 70% {opacity: 1} 73.333333% {opacity: 0} 100% {opacity: 0} }#ex0w1jsvv3yo10_to {animation: ex0w1jsvv3yo10_to__to 3000ms linear 1 normal forwards}@keyframes ex0w1jsvv3yo10_to__to { 0% {transform: translate(-6293.750000px,3120.238724px)} 50% {transform: translate(-6293.750000px,3120.238724px)} 56.666667% {transform: translate(2454.254426px,559.937695px)} 100% {transform: translate(2454.254426px,559.937695px)} }#ex0w1jsvv3yo10 {animation: ex0w1jsvv3yo10_c_o 3000ms linear 1 normal forwards}@keyframes ex0w1jsvv3yo10_c_o { 0% {opacity: 0} 50% {opacity: 0} 56.666667% {opacity: 1} 60% {opacity: 1} 63.333333% {opacity: 0} 66.666667% {opacity: 0} 70% {opacity: 1} 73.333333% {opacity: 0} 100% {opacity: 0} }#ex0w1jsvv3yo11_to {animation: ex0w1jsvv3yo11_to__to 3000ms linear 1 normal forwards}@keyframes ex0w1jsvv3yo11_to__to { 0% {transform: translate(-3490.725591px,520.333802px)} 76.666667% {transform: translate(-3490.725591px,520.333802px)} 83.333333% {transform: translate(-3490.725591px,2514.796237px)} 100% {transform: translate(-3490.725591px,2514.796237px)} }#ex0w1jsvv3yo11 {animation: ex0w1jsvv3yo11_c_o 3000ms linear 1 normal forwards}@keyframes ex0w1jsvv3yo11_c_o { 0% {opacity: 0} 73.333333% {opacity: 0} 76.666667% {opacity: 0.960000} 100% {opacity: 0.960000} }#ex0w1jsvv3yo12_to {animation: ex0w1jsvv3yo12_to__to 3000ms linear 1 normal forwards}@keyframes ex0w1jsvv3yo12_to__to { 0% {transform: translate(-3490.725591px,520.333802px)} 76.666667% {transform: translate(-3490.725591px,520.333802px)} 83.333333% {transform: translate(-3490.725591px,2514.796237px)} 100% {transform: translate(-3490.725591px,2514.796237px)} }#ex0w1jsvv3yo12 {animation: ex0w1jsvv3yo12_c_o 3000ms linear 1 normal forwards}@keyframes ex0w1jsvv3yo12_c_o { 0% {opacity: 0} 73.333333% {opacity: 0} 76.666667% {opacity: 0.960000} 100% {opacity: 0.960000} }#ex0w1jsvv3yo13_to {animation: ex0w1jsvv3yo13_to__to 3000ms linear 1 normal forwards}@keyframes ex0w1jsvv3yo13_to__to { 0% {transform: translate(-3490.725591px,520.333802px)} 76.666667% {transform: translate(-3490.725591px,520.333802px)} 83.333333% {transform: translate(-3490.725591px,2514.796237px)} 100% {transform: translate(-3490.725591px,2514.796237px)} }#ex0w1jsvv3yo13 {animation: ex0w1jsvv3yo13_c_o 3000ms linear 1 normal forwards}@keyframes ex0w1jsvv3yo13_c_o { 0% {opacity: 0} 73.333333% {opacity: 0} 76.666667% {opacity: 0.960000} 100% {opacity: 0.960000} }#ex0w1jsvv3yo14_to {animation: ex0w1jsvv3yo14_to__to 3000ms linear 1 normal forwards}@keyframes ex0w1jsvv3yo14_to__to { 0% {transform: translate(-3490.725591px,520.333802px)} 76.666667% {transform: translate(-3490.725591px,520.333802px)} 83.333333% {transform: translate(-3490.725591px,2514.796237px)} 100% {transform: translate(-3490.725591px,2514.796237px)} }#ex0w1jsvv3yo14 {animation: ex0w1jsvv3yo14_c_o 3000ms linear 1 normal forwards}@keyframes ex0w1jsvv3yo14_c_o { 0% {opacity: 0} 73.333333% {opacity: 0} 76.666667% {opacity: 0.960000} 100% {opacity: 0.960000} }#ex0w1jsvv3yo15_to {animation: ex0w1jsvv3yo15_to__to 3000ms linear 1 normal forwards}@keyframes ex0w1jsvv3yo15_to__to { 0% {transform: translate(-3490.725591px,520.333802px)} 76.666667% {transform: translate(-3490.725591px,520.333802px)} 83.333333% {transform: translate(-3490.725591px,2514.796237px)} 100% {transform: translate(-3490.725591px,2514.796237px)} }#ex0w1jsvv3yo15 {animation: ex0w1jsvv3yo15_c_o 3000ms linear 1 normal forwards}@keyframes ex0w1jsvv3yo15_c_o { 0% {opacity: 0} 73.333333% {opacity: 0} 76.666667% {opacity: 0.960000} 100% {opacity: 0.960000} }#ex0w1jsvv3yo16_to {animation: ex0w1jsvv3yo16_to__to 3000ms linear 1 normal forwards}@keyframes ex0w1jsvv3yo16_to__to { 0% {transform: translate(-3490.725591px,520.333802px)} 76.666667% {transform: translate(-3490.725591px,520.333802px)} 83.333333% {transform: translate(-3490.725591px,2514.796237px)} 100% {transform: translate(-3490.725591px,2514.796237px)} }#ex0w1jsvv3yo16 {animation: ex0w1jsvv3yo16_c_o 3000ms linear 1 normal forwards}@keyframes ex0w1jsvv3yo16_c_o { 0% {opacity: 0} 73.333333% {opacity: 0} 76.666667% {opacity: 0.960000} 100% {opacity: 0.960000} }#ex0w1jsvv3yo17_to {animation: ex0w1jsvv3yo17_to__to 3000ms linear 1 normal forwards}@keyframes ex0w1jsvv3yo17_to__to { 0% {transform: translate(-5718.514780px,3026.290567px)} 93.333333% {transform: translate(-5718.514780px,3026.290567px)} 100% {transform: translate(2418.960943px,2354.613868px)} }#ex0w1jsvv3yo17 {animation: ex0w1jsvv3yo17_c_o 3000ms linear 1 normal forwards}@keyframes ex0w1jsvv3yo17_c_o { 0% {opacity: 0} 93.333333% {opacity: 0} 100% {opacity: 1} }#ex0w1jsvv3yo18_to {animation: ex0w1jsvv3yo18_to__to 3000ms linear 1 normal forwards}@keyframes ex0w1jsvv3yo18_to__to { 0% {transform: translate(8432.401730px,2336.290567px)} 93.333333% {transform: translate(8432.401730px,2336.290567px)} 100% {transform: translate(2455.774409px,2348.290567px)} }#ex0w1jsvv3yo18 {animation: ex0w1jsvv3yo18_c_o 3000ms linear 1 normal forwards}@keyframes ex0w1jsvv3yo18_c_o { 0% {opacity: 0} 93.333333% {opacity: 0} 100% {opacity: 1} }#ex0w1jsvv3yo19_to {animation: ex0w1jsvv3yo19_to__to 3000ms linear 1 normal forwards}@keyframes ex0w1jsvv3yo19_to__to { 0% {transform: translate(-5680.269060px,2963.462689px)} 83.333333% {transform: translate(-5680.269060px,2963.462689px)} 86.666667% {transform: translate(2401.640222px,2321.290567px)} 100% {transform: translate(2401.640222px,2321.290567px)} }#ex0w1jsvv3yo19 {animation: ex0w1jsvv3yo19_c_o 3000ms linear 1 normal forwards}@keyframes ex0w1jsvv3yo19_c_o { 0% {opacity: 0} 83.333333% {opacity: 0} 86.666667% {opacity: 1} 100% {opacity: 1} }#ex0w1jsvv3yo20_to {animation: ex0w1jsvv3yo20_to__to 3000ms linear 1 normal forwards}@keyframes ex0w1jsvv3yo20_to__to { 0% {transform: translate(-2463.514780px,2331.290567px)} 86.666667% {transform: translate(-2463.514780px,2331.290567px)} 93.333333% {transform: translate(2360.773560px,2355.722760px)} 100% {transform: translate(2360.773560px,2355.722760px)} }#ex0w1jsvv3yo20 {animation: ex0w1jsvv3yo20_c_o 3000ms linear 1 normal forwards}@keyframes ex0w1jsvv3yo20_c_o { 0% {opacity: 0} 86.666667% {opacity: 0} 93.333333% {opacity: 1} 100% {opacity: 1} }#ex0w1jsvv3yo21_to {animation: ex0w1jsvv3yo21_to__to 3000ms linear 1 normal forwards}@keyframes ex0w1jsvv3yo21_to__to { 0% {transform: translate(9732.756220px,2333.290567px)} 86.666667% {transform: translate(9732.756220px,2333.290567px)} 93.333333% {transform: translate(2386.973513px,2339.506664px)} 100% {transform: translate(2386.973513px,2339.506664px)} }#ex0w1jsvv3yo21 {animation: ex0w1jsvv3yo21_c_o 3000ms linear 1 normal forwards}@keyframes ex0w1jsvv3yo21_c_o { 0% {opacity: 0} 86.666667% {opacity: 0} 93.333333% {opacity: 1} 100% {opacity: 1} }]]></style><g id="ex0w1jsvv3yo2" transform="matrix(0.10000000000000 0 0 -0.10000000000000 0 1007)"><g id="ex0w1jsvv3yo3_to" transform="translate(8541.563389,-181.004584)"><path id="ex0w1jsvv3yo3" d="M2443,9678C2164,9399,2050,9279,2050,9263C2050,9237,2075,9210,2099,9210C2108,9210,2138,9233,2165,9260L2214,9310L3040,8486C3942,7586,3898,7625,4043,7600C4220,7569,4401,7664,4483,7830C4513,7891,4515,7900,4515,8010C4515,8202,4589,8112,3636,9067L2806,9900L2853,9948C2885,9981,2900,10004,2900,10022C2900,10049,2877,10070,2848,10070C2841,10070,2659,9893,2443,9678ZM3448,9127L4151,8424L3728,8392L3305,8360L2795,8870L2285,9380L2510,9605C2634,9729,2737,9830,2740,9830C2743,9830,3061,9514,3448,9127ZM4307,8267C4403,8166,4425,8118,4425,8010C4425,7914,4407,7865,4345,7792C4267,7701,4115,7666,3995,7710C3940,7731,3914,7753,3662,8004C3393,8271,3390,8275,3422,8278C3476,8284,4172,8338,4206,8339C4233,8340,4248,8329,4307,8267Z" transform="translate(0,0)" fill="rgb(255,255,255)" stroke="none" stroke-width="1"/></g><g id="ex0w1jsvv3yo4_to" transform="translate(8574.731964,-181.004584)"><path id="ex0w1jsvv3yo4" d="M3257,9133C3253,9130,3250,9115,3250,9100C3250,9080,3284,9040,3408,8917C3495,8831,3573,8760,3582,8760C3600,8760,3630,8791,3630,8810C3630,8818,3559,8895,3473,8982C3350,9106,3310,9140,3290,9140C3275,9140,3260,9137,3257,9133Z" transform="translate(0,0)" fill="rgb(255,255,255)" stroke="none" stroke-width="1"/></g><g id="ex0w1jsvv3yo5_to" transform="translate(8574.731964,-181.004584)"><path id="ex0w1jsvv3yo5" d="M3672,8718C3648,8694,3660,8664,3723,8602C3768,8557,3793,8540,3812,8540C3836,8540,3860,8563,3860,8585C3860,8589,3830,8623,3793,8661C3727,8730,3698,8744,3672,8718Z" transform="translate(0,0)" fill="rgb(255,255,255)" stroke="none" stroke-width="1"/></g><g id="ex0w1jsvv3yo6_to" transform="translate(2340.722261,146.790206)"><path id="ex0w1jsvv3yo6" d="M2308,8701C2282,8692,1993,8264,1974,8207C1962,8171,1959,8135,1962,8071C1968,7964,1992,7908,2060,7836C2184,7705,2383,7683,2533,7783C2675,7878,2733,8056,2676,8218C2657,8272,2364,8697,2342,8702C2332,8705,2317,8704,2308,8701ZM2454,8390C2518,8297,2577,8205,2585,8186C2622,8097,2592,7962,2519,7893C2349,7732,2074,7837,2053,8071C2049,8108,2053,8143,2062,8171C2080,8222,2318,8573,2329,8565C2334,8563,2390,8484,2454,8390Z" transform="translate(0,0)" opacity="0" fill="rgb(255,255,255)" stroke="none" stroke-width="1"/></g><path id="ex0w1jsvv3yo7" d="M2185,6786C2081,6738,118,5594,84,5563C56,5536,40,5510,32,5478C15,5412,15,3069,32,3003C39,2973,56,2944,79,2921C101,2899,532,2645,1155,2285L2195,1685L2270,1685L2345,1685L3385,2285C4008,2645,4439,2899,4461,2921C4484,2944,4501,2973,4508,3003C4525,3069,4525,5411,4508,5477C4501,5507,4484,5536,4461,5559C4439,5581,4009,5835,3385,6195L2345,6795L2280,6797C2240,6799,2204,6795,2185,6786ZM3194,5836L4110,5306L4110,4240L4110,3174L3190,2643L2270,2111L1350,2643L430,3174L430,4240L430,5306L1348,5837C1852,6129,2268,6367,2271,6367C2274,6366,2690,6127,3194,5836Z" transform="matrix(1 0 0 1 2335.52595569999994 519.08143759999962)" opacity="0" fill="rgb(255,255,255)" stroke="none" stroke-width="1"/><g id="ex0w1jsvv3yo8_to" transform="translate(-6268.403669,3323.479157)"><path id="ex0w1jsvv3yo8" d="M2206,6036C2149,6015,2119,5989,2093,5940C2046,5852,2073,5736,2153,5681C2176,5666,2510,5471,2895,5249L3595,4845L3655,4845C3730,4845,3784,4871,3824,4928C3882,5009,3868,5122,3793,5191C3770,5213,2475,5966,2363,6024C2316,6048,2252,6053,2206,6036Z" transform="translate(0,0)" opacity="0" fill="rgb(255,255,255)" stroke="none" stroke-width="1"/></g><g id="ex0w1jsvv3yo9_to" transform="translate(-6293.750000,3120.238724)"><path id="ex0w1jsvv3yo9" d="M795,5227C756,5209,716,5168,696,5125C681,5095,680,5004,682,4228L685,3365L709,3329C753,3264,793,3245,881,3245C967,3245,989,3255,1044,3324L1075,3362L1075,4240L1075,5118L1044,5156C992,5220,967,5234,892,5237C850,5239,814,5235,795,5227Z" transform="translate(0,0)" opacity="0" fill="rgb(255,255,255)" stroke="none" stroke-width="1"/></g><g id="ex0w1jsvv3yo10_to" transform="translate(-6293.750000,3120.238724)"><path id="ex0w1jsvv3yo10" d="M3600,3631C3572,3622,2221,2844,2153,2799C2036,2719,2045,2524,2169,2460C2225,2432,2278,2426,2327,2443C2382,2462,3757,3255,3793,3289C3922,3408,3852,3622,3679,3635C3650,3638,3614,3636,3600,3631Z" transform="translate(0,0)" opacity="0" fill="rgb(255,255,255)" stroke="none" stroke-width="1"/></g><g id="ex0w1jsvv3yo11_to" transform="translate(-3490.725591,520.333802)"><path id="ex0w1jsvv3yo11" d="M7050,6234C6514,5923,6074,5666,6073,5662C6071,5656,8009,4533,8041,4522C8046,4520,8050,4974,8050,5659C8050,6566,8047,6800,8038,6799C8031,6798,7586,6544,7050,6234Z" transform="translate(0,0)" opacity="0" fill="rgb(255,255,255)" stroke="none" stroke-width="1"/></g><g id="ex0w1jsvv3yo12_to" transform="translate(-3490.725591,520.333802)"><path id="ex0w1jsvv3yo12" d="M8370,5659C8370,4960,8374,4520,8379,4522C8411,4533,10349,5656,10347,5662C10345,5671,8391,6800,8379,6800C8374,6800,8370,6304,8370,5659Z" transform="translate(0,0)" opacity="0" fill="rgb(255,255,255)" stroke="none" stroke-width="1"/></g><g id="ex0w1jsvv3yo13_to" transform="translate(-3490.725591,520.333802)"><path id="ex0w1jsvv3yo13" d="M5910,4240C5910,3534,5914,3100,5919,3102C5940,3109,7889,4235,7889,4240C7889,4245,5940,5371,5919,5378C5914,5380,5910,4954,5910,4240Z" transform="translate(0,0)" opacity="0" fill="rgb(255,255,255)" stroke="none" stroke-width="1"/></g><g id="ex0w1jsvv3yo14_to" transform="translate(-3490.725591,520.333802)"><path id="ex0w1jsvv3yo14" d="M9522,4816C8987,4506,8545,4249,8541,4244C8536,4239,8937,4002,9512,3670C10051,3359,10496,3104,10501,3102C10506,3100,10510,3544,10510,4239C10510,4867,10507,5380,10503,5379C10498,5379,10057,5125,9522,4816Z" transform="translate(0,0)" opacity="0" fill="rgb(255,255,255)" stroke="none" stroke-width="1"/></g><g id="ex0w1jsvv3yo15_to" transform="translate(-3490.725591,520.333802)"><path id="ex0w1jsvv3yo15" d="M7053,3392C6513,3080,6072,2822,6073,2818C6075,2809,8029,1680,8042,1680C8046,1680,8050,2193,8050,2820C8050,3447,8047,3960,8043,3959C8038,3959,7593,3703,7053,3392Z" transform="translate(0,0)" opacity="0" fill="rgb(255,255,255)" stroke="none" stroke-width="1"/></g><g id="ex0w1jsvv3yo16_to" transform="translate(-3490.725591,520.333802)"><path id="ex0w1jsvv3yo16" d="M8370,2821C8370,2179,8374,1680,8379,1680C8392,1680,10345,2809,10347,2818C10349,2824,8411,3947,8379,3958C8374,3960,8370,3524,8370,2821Z" transform="translate(0,0)" opacity="0" fill="rgb(255,255,255)" stroke="none" stroke-width="1"/></g><g id="ex0w1jsvv3yo17_to" transform="translate(-5718.514780,3026.290567)"><path id="ex0w1jsvv3yo17" d="M340,1449C149,1430,46,1290,10,1006C-5,884,-2,532,15,418C49,187,127,67,267,24C337,2,490,4,567,28C655,56,723,97,715,118C711,128,697,166,683,203C669,240,655,269,651,267C503,187,418,172,340,212C304,230,289,247,267,291C223,378,209,485,209,730C209,957,220,1061,252,1147C298,1272,420,1305,562,1231L621,1201L656,1277C675,1319,689,1359,686,1367C683,1375,652,1394,618,1410C545,1444,440,1459,340,1449Z" transform="translate(0,0)" opacity="0" fill="rgb(255,255,255)" stroke="none" stroke-width="1"/></g><g id="ex0w1jsvv3yo18_to" transform="translate(8432.401730,2336.290567)"><path id="ex0w1jsvv3yo18" d="M3985,1432C3840,1382,3775,1273,3782,1092C3788,923,3847,837,4046,704C4222,587,4260,534,4260,408C4260,318,4237,264,4184,224C4150,198,4139,195,4065,195C3988,195,3978,198,3894,240C3845,265,3802,286,3798,288C3795,290,3779,252,3764,205L3735,119L3760,99C3774,89,3821,66,3865,48C3941,17,3952,16,4075,15C4195,15,4209,17,4261,41C4336,76,4395,137,4433,218C4464,283,4465,289,4465,420C4465,550,4464,557,4435,615C4395,695,4308,781,4177,869C3994,993,3949,1075,4000,1187C4029,1252,4068,1272,4161,1268C4226,1265,4248,1259,4310,1228L4382,1191L4416,1266C4435,1307,4450,1346,4450,1351C4450,1364,4334,1418,4268,1436C4193,1455,4047,1454,3985,1432Z" transform="translate(0,0)" opacity="0" fill="rgb(255,255,255)" stroke="none" stroke-width="1"/></g><g id="ex0w1jsvv3yo19_to" transform="translate(-5680.269060,2963.462689)"><path id="ex0w1jsvv3yo19" d="M2210,1435C2210,1433,2140,1122,2055,744C1970,366,1900,51,1900,43C1900,33,1923,30,2004,30L2107,30L2208,537C2264,817,2314,1083,2320,1130C2327,1177,2333,1216,2334,1217C2335,1219,2342,1171,2349,1112C2358,1031,2520,199,2555,53C2560,31,2565,30,2666,30C2771,30,2772,30,2768,53C2766,65,2694,382,2610,758L2456,1440L2333,1440C2265,1440,2210,1438,2210,1435Z" transform="translate(0,0)" opacity="0" fill="rgb(255,255,255)" stroke="none" stroke-width="1"/></g><g id="ex0w1jsvv3yo20_to" transform="translate(-2463.514780,2331.290567)"><path id="ex0w1jsvv3yo20" d="M1210,730L1210,30L1520,30L1830,30L1830,115L1830,200L1620,200L1410,200L1410,815L1410,1430L1310,1430L1210,1430L1210,730Z" transform="translate(0,0)" opacity="0" fill="rgb(255,255,255)" stroke="none" stroke-width="1"/></g><g id="ex0w1jsvv3yo21_to" transform="translate(9732.756220,2333.290567)"><path id="ex0w1jsvv3yo21" d="M2920,729L2920,28L3148,32C3402,37,3428,42,3514,108C3642,205,3687,443,3610,616C3587,669,3519,744,3480,760C3463,767,3450,775,3451,779C3451,782,3470,799,3493,815C3582,880,3626,990,3618,1129C3609,1277,3540,1368,3404,1410C3346,1427,3311,1430,3129,1430L2920,1430L2920,729ZM3334,1235C3400,1202,3415,1172,3415,1071C3415,993,3412,979,3388,943C3352,889,3296,863,3193,854L3110,847L3110,1055L3110,1262L3203,1258C3268,1255,3307,1248,3334,1235ZM3337,658C3413,622,3441,564,3441,436C3441,270,3360,200,3170,200L3110,200L3110,446L3110,693L3203,686C3262,681,3310,672,3337,658Z" transform="translate(0,0)" opacity="0" fill="rgb(255,255,255)" stroke="none" stroke-width="1"/></g></g></svg>